<svg width="24" height="24" viewBox="0 0 24 24" fill="none" xmlns="http://www.w3.org/2000/svg">
<path d="M13.9684 1.95776V3.12309C13.9684 4.7969 13.9684 5.63381 14.2862 6.26546C14.5811 6.95639 15.1314 7.50672 15.8223 7.80156C16.4553 8.11937 17.2922 8.11937 18.966 8.11937H20.0744M13.9684 1.95776C13.5306 1.95777 13.2626 1.95777 12.5383 1.95777H10.4725C7.98296 1.95777 6.73819 1.95777 5.80461 2.45038C4.94931 2.92845 4.24338 3.63438 3.76531 4.48968C3.27271 5.42326 3.27271 6.66802 3.27271 9.15756V14.8424C3.27271 17.332 3.27271 18.5767 3.76531 19.5103C4.24338 20.3656 4.94931 21.0715 5.80461 21.5496C6.73819 22.0422 7.98296 22.0422 10.4725 22.0422H13.5275C16.017 22.0422 17.2618 22.0422 18.1953 21.5496C19.0506 21.0715 19.7566 20.3656 20.2346 19.5103C20.7273 18.5767 20.7273 17.332 20.7273 14.8424V7.83334C20.7273 7.06926 20.7273 6.68921 20.6783 6.3767C20.665 6.284 20.616 6.08007 20.5948 5.99664C20.5299 5.7318 20.4293 5.48417 20.2942 5.25508C20.1393 5.00083 19.9287 4.79028 19.5063 4.36785L18.2947 3.15619C17.8722 2.73377 17.6617 2.52321 17.4074 2.36828C17.1783 2.23321 16.9307 2.13257 16.6659 2.06768C16.5824 2.0465 16.3083 1.95773 13.9684 1.95776ZM12.0271 17.4948V10.6976M15.9111 17.4948V12.6403M8.14186 17.4948V15.5535" stroke="white" stroke-width="2" stroke-linecap="round" stroke-linejoin="round"/>
</svg>
